<?xml version="1.0" encoding="UTF-8" standalone="no"?>
<!-- Created with Inkscape (http://www.inkscape.org/) -->

<svg
   xmlns:dc="http://purl.org/dc/elements/1.1/"
   xmlns:cc="http://creativecommons.org/ns#"
   xmlns:rdf="http://www.w3.org/1999/02/22-rdf-syntax-ns#"
   xmlns:svg="http://www.w3.org/2000/svg"
   xmlns="http://www.w3.org/2000/svg"
   xmlns:sodipodi="http://sodipodi.sourceforge.net/DTD/sodipodi-0.dtd"
   xmlns:inkscape="http://www.inkscape.org/namespaces/inkscape"
   width="300"
   height="300"
   viewBox="0 0 300 300"
   id="svg2"
   version="1.1"
   inkscape:version="0.91 r13725"
   inkscape:export-filename="C:\Users\Auwia\Desktop\images\down_pressed.png"
   inkscape:export-xdpi="90"
   inkscape:export-ydpi="90"
   sodipodi:docname="play.svg">
  <defs
     id="defs4" />
  <sodipodi:namedview
     id="base"
     pagecolor="#ffffff"
     bordercolor="#666666"
     borderopacity="1.0"
     inkscape:pageopacity="0.0"
     inkscape:pageshadow="2"
     inkscape:zoom="1.2716667"
     inkscape:cx="-8.350428"
     inkscape:cy="94.312662"
     inkscape:document-units="px"
     inkscape:current-layer="g4211"
     showgrid="false"
     units="px"
     inkscape:window-width="1680"
     inkscape:window-height="987"
     inkscape:window-x="-8"
     inkscape:window-y="-8"
     inkscape:window-maximized="1" />
  <metadata
     id="metadata7">
    <rdf:RDF>
      <cc:Work
         rdf:about="">
        <dc:format>image/svg+xml</dc:format>
        <dc:type
           rdf:resource="http://purl.org/dc/dcmitype/StillImage" />
        <dc:title />
      </cc:Work>
    </rdf:RDF>
  </metadata>
  <g
     style="display:none"
     transform="translate(0,-752.36216)"
     id="g5278"
     inkscape:groupmode="layer"
     inkscape:label="pause_normal">
    <path
       style="fill:#00aac0;fill-opacity:1"
       d="M 150,0 A 150,150 0 0 0 0,150 150,150 0 0 0 150,300 150,150 0 0 0 300,150 150,150 0 0 0 150,0 Z m -49.23242,100.06641 42.46484,0 0,99.86718 -42.46484,0 0,-99.86718 z m 60,0 42.46484,0 0,99.86718 -42.46484,0 0,-99.86718 z"
       transform="translate(0,752.36216)"
       id="path5282"
       inkscape:connector-curvature="0" />
  </g>
  <g
     style="display:none"
     transform="translate(0,-752.36216)"
     id="g5308"
     inkscape:groupmode="layer"
     inkscape:label="stop_normal">
    <path
       style="fill:#00aac0;fill-opacity:1"
       d="M 150,0 A 150,150 0 0 0 0,150 150,150 0 0 0 150,300 150,150 0 0 0 300,150 150,150 0 0 0 150,0 Z m -66.841797,83.158203 133.683597,0 0,133.683597 -133.683597,0 0,-133.683597 z"
       transform="translate(0,752.36216)"
       id="path5312"
       inkscape:connector-curvature="0" />
  </g>
  <g
     inkscape:label="play_normal"
     inkscape:groupmode="layer"
     id="layer1"
     transform="translate(0,-752.36216)"
     style="display:none">
    <path
       style="fill:#00aac0;fill-opacity:1"
       d="M 150,0 A 150,150 0 0 0 0,150 150,150 0 0 0 150,300 150,150 0 0 0 300,150 150,150 0 0 0 150,0 Z M 87.380859,52.060547 166,97.453125 244.61914,142.84375 166,188.23438 87.380859,233.625 l 0,-90.78125 0,-90.783203 z"
       transform="translate(0,752.36216)"
       id="path4136"
       inkscape:connector-curvature="0" />
  </g>
  <g
     style="display:none"
     transform="translate(0,-752.36216)"
     id="g5321"
     inkscape:groupmode="layer"
     inkscape:label="home_normal">
    <path
       style="fill:#ffffff;fill-opacity:1"
       d="M 150,0 A 150,150 0 0 0 0,150 150,150 0 0 0 150,300 150,150 0 0 0 300,150 150,150 0 0 0 150,0 Z m 1.33789,80.748047 65.59961,54.722653 0,83.90625 -133.875,0 0,-80.25781 68.27539,-58.371093 z"
       transform="translate(0,752.36216)"
       id="path5325"
       inkscape:export-filename="C:\Users\massimo.manganiello\Desktop\progetti\hyperterm\images\home_pressed.png"
       inkscape:export-xdpi="89"
       inkscape:export-ydpi="89"
       inkscape:connector-curvature="0" />
  </g>
  <g
     inkscape:label="home_pressed"
     inkscape:groupmode="layer"
     id="g5330"
     transform="translate(0,-752.36216)"
     style="display:none">
    <path
       inkscape:connector-curvature="0"
       inkscape:export-ydpi="89"
       inkscape:export-xdpi="89"
       inkscape:export-filename="C:\Users\massimo.manganiello\Desktop\progetti\hyperterm\images\home_normal.png"
       id="path5332"
       transform="translate(0,752.36216)"
       d="M 150,0 A 150,150 0 0 0 0,150 150,150 0 0 0 150,300 150,150 0 0 0 300,150 150,150 0 0 0 150,0 Z m 1.33789,80.748047 65.59961,54.722653 0,83.90625 -133.875,0 0,-80.25781 68.27539,-58.371093 z"
       style="fill:#0000cc;fill-opacity:1" />
  </g>
  <g
     inkscape:label="pause_pressed"
     inkscape:groupmode="layer"
     id="g5304"
     transform="translate(0,-752.36216)"
     style="display:none">
    <path
       id="path5306"
       transform="translate(0,752.36216)"
       d="M 150,0 A 150,150 0 0 0 0,150 150,150 0 0 0 150,300 150,150 0 0 0 300,150 150,150 0 0 0 150,0 Z m -49.23242,100.06641 42.46484,0 0,99.86718 -42.46484,0 0,-99.86718 z m 60,0 42.46484,0 0,99.86718 -42.46484,0 0,-99.86718 z"
       style="fill:#0000cc;fill-opacity:1"
       inkscape:connector-curvature="0" />
  </g>
  <g
     inkscape:label="stop_pressed"
     inkscape:groupmode="layer"
     id="g5317"
     transform="translate(0,-752.36216)"
     style="display:none">
    <path
       id="path5319"
       transform="translate(0,752.36216)"
       d="M 150,0 A 150,150 0 0 0 0,150 150,150 0 0 0 150,300 150,150 0 0 0 300,150 150,150 0 0 0 150,0 Z m -66.841797,83.158203 133.683597,0 0,133.683597 -133.683597,0 0,-133.683597 z"
       style="fill:#0000cc;fill-opacity:1"
       inkscape:connector-curvature="0"
       inkscape:export-filename="C:\Users\massimo.manganiello\Desktop\progetti\hyperterm\images\home_pressed2.png"
       inkscape:export-xdpi="89"
       inkscape:export-ydpi="89" />
  </g>
  <g
     transform="translate(0,-752.36216)"
     id="g5272"
     inkscape:groupmode="layer"
     inkscape:label="play_pressed"
     style="display:none">
    <path
       id="path5274"
       transform="translate(0,752.36216)"
       d="M 150,0 A 150,150 0 0 0 0,150 150,150 0 0 0 150,300 150,150 0 0 0 300,150 150,150 0 0 0 150,0 Z M 87.380859,52.060547 166,97.453125 244.61914,142.84375 166,188.23438 87.380859,233.625 l 0,-90.78125 0,-90.783203 z"
       style="fill:#00aac0;fill-opacity:1"
       inkscape:connector-curvature="0" />
    <path
       style="fill:#0000cc;fill-opacity:1"
       d="M 108.22284,292.03987 C 80.569494,283.09935 64.130265,273.25715 45.234307,254.32853 -27.243258,181.72568 -5.5551152,60.270192 87.804076,15.934109 108.57782,6.0687023 115.71744,4.3378446 141.11789,3.0092364 164.98616,1.7607717 174.4623,2.6984266 192.02111,8.0460607 299.62047,40.816057 333.68101,175.23773 254.43334,254.35916 c -9.76405,9.7485 -24.46819,21.37951 -32.67586,25.84668 -32.5533,17.71773 -80.02993,22.66635 -113.53464,11.83403 z M 168.93022,187.9995 c 42.90414,-24.69012 77.58304,-45.27589 77.06422,-45.74614 -3.40567,-3.08689 -155.269077,-89.629231 -157.280248,-89.629231 -1.380337,0 -2.509705,41.13203 -2.509705,91.404511 0,50.27248 1.061599,90.83244 2.359108,90.13325 1.29751,-0.69919 37.462495,-21.47226 80.366625,-46.16239 z"
       id="path5276"
       inkscape:connector-curvature="0"
       transform="translate(0,752.36216)"
       inkscape:export-filename="C:\Users\massimo.manganiello\Desktop\progetti\hyperterm\images\play_pressed.png"
       inkscape:export-xdpi="89"
       inkscape:export-ydpi="89" />
  </g>
  <g
     inkscape:groupmode="layer"
     id="layer2"
     inkscape:label="sfondo"
     style="display:none">
    <rect
       style="opacity:0.92000002;fill:#280b0b;fill-opacity:1;stroke:none;stroke-width:24.29400063;stroke-miterlimit:4;stroke-dasharray:none;stroke-opacity:1"
       id="rect4161"
       width="300"
       height="300"
       x="0"
       y="0" />
  </g>
  <g
     style="display:none;opacity:0.98000004"
     inkscape:label="up_normal"
     inkscape:groupmode="layer"
     id="g5334"
     transform="translate(0,-752.36216)">
    <circle
       style="fill:#ffffff;fill-opacity:1;stroke:#ffff00;stroke-width:10;stroke-miterlimit:4;stroke-dasharray:none;stroke-opacity:0"
       id="path5340"
       cx="150"
       cy="902.36218"
       r="0" />
    <path
       sodipodi:type="star"
       style="fill:#ffffff;fill-opacity:1;stroke:none;stroke-width:1.43117154;stroke-miterlimit:4;stroke-dasharray:none;stroke-opacity:1"
       id="path5342"
       sodipodi:sides="3"
       sodipodi:cx="149.02068"
       sodipodi:cy="916.68665"
       sodipodi:r1="121.35596"
       sodipodi:r2="60.677982"
       sodipodi:arg1="0.52359878"
       sodipodi:arg2="1.5707963"
       inkscape:flatsided="false"
       inkscape:rounded="0"
       inkscape:randomized="0"
       d="m 254.11802,977.36462 -105.09734,1e-5 -105.097346,-1e-5 52.548667,-91.01696 52.548679,-91.01697 52.54867,91.01696 z"
       inkscape:transform-center-y="-20.336454"
       transform="matrix(0.72835408,0,0,0.67030743,41.460183,300.23674)" />
    <circle
       style="opacity:0.92000002;fill:none;fill-opacity:1;stroke:#ffffff;stroke-width:10;stroke-miterlimit:4;stroke-dasharray:none;stroke-opacity:1"
       id="path4163"
       cx="150"
       cy="902.36218"
       r="145"
       inkscape:export-filename="C:\Users\Auwia\Desktop\images\path4163.png"
       inkscape:export-xdpi="90"
       inkscape:export-ydpi="90" />
  </g>
  <g
     transform="translate(0,-752.36216)"
     id="g4173"
     inkscape:groupmode="layer"
     inkscape:label="up_pressed"
     style="display:none;opacity:0.98000004">
    <circle
       r="0"
       cy="902.36218"
       cx="150"
       id="circle4175"
       style="fill:#ffffff;fill-opacity:1;stroke:#ffff00;stroke-width:10;stroke-miterlimit:4;stroke-dasharray:none;stroke-opacity:0" />
    <path
       style="opacity:0.92000002;fill:#ffffff;fill-opacity:1;stroke:none;stroke-width:10;stroke-miterlimit:4;stroke-dasharray:none;stroke-opacity:1"
       d="M 150,5 A 145,145 0 0 0 5,150 145,145 0 0 0 150,295 145,145 0 0 0 295,150 145,145 0 0 0 150,5 Z M 150,80.990234 188.27344,142 l 38.27539,61.00977 -76.54883,0 -76.548828,0 L 111.72656,142 150,80.990234 Z"
       transform="translate(0,752.36216)"
       id="circle4179"
       inkscape:connector-curvature="0" />
  </g>
  <g
     transform="translate(0,-752.36216)"
     id="g4165"
     inkscape:groupmode="layer"
     inkscape:label="down_normal"
     style="display:none;opacity:0.98000004">
    <circle
       r="0"
       cy="902.36218"
       cx="150"
       id="circle4167"
       style="fill:#ffffff;fill-opacity:1;stroke:#ffff00;stroke-width:10;stroke-miterlimit:4;stroke-dasharray:none;stroke-opacity:0" />
    <path
       transform="matrix(-0.72835408,0,0,-0.67030743,258.53982,1504.4876)"
       d="m 254.11802,977.36462 -105.09734,1e-5 -105.097346,-1e-5 52.548667,-91.01696 52.548679,-91.01697 52.54867,91.01696 z"
       inkscape:randomized="0"
       inkscape:rounded="0"
       inkscape:flatsided="false"
       sodipodi:arg2="1.5707963"
       sodipodi:arg1="0.52359878"
       sodipodi:r2="60.677982"
       sodipodi:r1="121.35596"
       sodipodi:cy="916.68665"
       sodipodi:cx="149.02068"
       sodipodi:sides="3"
       id="path4169"
       style="fill:#ffffff;fill-opacity:1;stroke:none;stroke-width:1.43117154;stroke-miterlimit:4;stroke-dasharray:none;stroke-opacity:1"
       sodipodi:type="star"
       inkscape:transform-center-y="20.336462" />
    <circle
       inkscape:export-ydpi="90"
       inkscape:export-xdpi="90"
       inkscape:export-filename="C:\Users\Auwia\Desktop\images\path4163.png"
       r="145"
       cy="902.36218"
       cx="150"
       id="circle4171"
       style="opacity:0.92000002;fill:none;fill-opacity:1;stroke:#ffffff;stroke-width:10;stroke-miterlimit:4;stroke-dasharray:none;stroke-opacity:1" />
  </g>
  <g
     style="display:inline;opacity:0.98000004"
     inkscape:label="down_pressed"
     inkscape:groupmode="layer"
     id="g4211"
     transform="translate(0,-752.36216)">
    <circle
       style="fill:#ff0000;fill-opacity:1;stroke:#ffff00;stroke-width:10;stroke-miterlimit:4;stroke-dasharray:none;stroke-opacity:0"
       id="circle4213"
       cx="150"
       cy="902.36218"
       r="0" />
    <circle
       style="opacity:0.92000002;fill:#ff0000;fill-opacity:1;stroke:#ffffff;stroke-width:10;stroke-miterlimit:4;stroke-dasharray:none;stroke-opacity:1"
       id="circle4217"
       cx="150"
       cy="902.36218"
       r="145"
       inkscape:export-filename="C:\Users\Auwia\Desktop\images\path4163.png"
       inkscape:export-xdpi="90"
       inkscape:export-ydpi="90" />
    <path
       inkscape:transform-center-y="20.336462"
       sodipodi:type="star"
       style="display:inline;opacity:0.98000004;fill:#00ffff;fill-opacity:1;stroke:none;stroke-width:1.43117154;stroke-miterlimit:4;stroke-dasharray:none;stroke-opacity:1"
       id="path4215"
       sodipodi:sides="3"
       sodipodi:cx="149.02068"
       sodipodi:cy="916.68665"
       sodipodi:r1="121.35596"
       sodipodi:r2="60.677982"
       sodipodi:arg1="0.52359878"
       sodipodi:arg2="1.5707963"
       inkscape:flatsided="false"
       inkscape:rounded="0"
       inkscape:randomized="0"
       d="m 254.11802,977.36462 -105.09734,1e-5 -105.097346,-1e-5 52.548667,-91.01696 52.548679,-91.01697 52.54867,91.01696 z"
       transform="matrix(-0.72835408,0,0,-0.67030743,258.53982,1504.4876)" />
  </g>
</svg>
